<?xml version="1.0" standalone="no"?>
<!DOCTYPE svg PUBLIC "-//W3C//DTD SVG 1.1//EN" 
  "http://www.w3.org/Graphics/SVG/1.1/DTD/svg11.dtd">
<!-- Created with ASCIIToSVG (http://9vx.org/~dho/a2s/) -->
<svg width="261px" height="160px" version="1.1"
  xmlns="http://www.w3.org/2000/svg" xmlns:xlink="http://www.w3.org/1999/xlink">
  <defs>
    <filter id="dsFilterNoBlur" width="150%" height="150%">
      <feOffset result="offOut" in="SourceGraphic" dx="3" dy="3"/>
      <feColorMatrix result="matrixOut" in="offOut" type="matrix" values="0.2 0 0 0 0 0 0.2 0 0 0 0 0 0.2 0 0 0 0 0 1 0"/>
      <feBlend in="SourceGraphic" in2="matrixOut" mode="normal"/>
    </filter>
    <filter id="dsFilter" width="150%" height="150%">
      <feOffset result="offOut" in="SourceGraphic" dx="3" dy="3"/>
      <feColorMatrix result="matrixOut" in="offOut" type="matrix" values="0.2 0 0 0 0 0 0.2 0 0 0 0 0 0.2 0 0 0 0 0 1 0"/>
      <feGaussianBlur result="blurOut" in="matrixOut" stdDeviation="3"/>
      <feBlend in="SourceGraphic" in2="blurOut" mode="normal"/>
    </filter>
    <marker id="iPointer"
      viewBox="0 0 10 10" refX="5" refY="5" 
      markerUnits="strokeWidth"
      markerWidth="8" markerHeight="7"
      orient="auto">
      <path d="M 10 0 L 10 10 L 0 5 z" />
    </marker>
    <marker id="Pointer"
      viewBox="0 0 10 10" refX="5" refY="5" 
      markerUnits="strokeWidth"
      markerWidth="8" markerHeight="7"
      orient="auto">
      <path d="M 0 0 L 10 5 L 0 10 z" />
    </marker>
  </defs><g id="boxes" stroke="black" stroke-width="2" fill="none" >
<g id="group0">
	<path id="path0" filter="url(#dsFilter)" fill="#fff" d="M 4.5 18 Q 4.5 8 14.5 8 L 138.5 8 Q 148.5 8 148.5 18 L 148.5 30 Q 148.5 40 138.5 40 L 14.5 40 Q 4.5 40 4.5 30 Z" />
	<text x="17.1" y="28.8" id="text0" fill="#000" stroke="none" style="font-family:Consolas,Monaco,Anonymous Pro,Anonymous,Bitstream Sans Mono,monospace;font-size:15.2px" >Kernel Module </text>

</g>
<g id="group2">
	<path id="path2" filter="url(#dsFilter)" fill="#fff" d="M 175.5 18 Q 175.5 8 185.5 8 L 246.5 8 Q 256.5 8 256.5 18 L 256.5 30 Q 256.5 40 246.5 40 L 185.5 40 Q 175.5 40 175.5 30 Z" />
	<text x="188.1" y="28.8" id="text2" fill="#000" stroke="none" style="font-family:Consolas,Monaco,Anonymous Pro,Anonymous,Bitstream Sans Mono,monospace;font-size:15.2px" >librbd </text>

</g>
<g id="group8">
	<path id="path8" filter="url(#dsFilter)" fill="#fff" d="M 4.5 66 Q 4.5 56 14.5 56 L 246.5 56 Q 256.5 56 256.5 66 L 256.5 78 Q 256.5 88 246.5 88 L 14.5 88 Q 4.5 88 4.5 78 Z" />
	<text x="17.1" y="76.8" id="text8" fill="#000" stroke="none" style="font-family:Consolas,Monaco,Anonymous Pro,Anonymous,Bitstream Sans Mono,monospace;font-size:15.2px" >RADOS Protocol </text>

</g>
<g id="group12">
	<path id="path12" filter="url(#dsFilter)" fill="#fff" d="M 4.5 114 Q 4.5 104 14.5 104 L 57.5 104 Q 67.5 104 67.5 114 L 67.5 126 Q 67.5 136 57.5 136 L 14.5 136 Q 4.5 136 4.5 126 Z" />
	<text x="17.1" y="124.8" id="text12" fill="#000" stroke="none" style="font-family:Consolas,Monaco,Anonymous Pro,Anonymous,Bitstream Sans Mono,monospace;font-size:15.2px" >OSDs </text>

</g>
<g id="group14">
	<path id="path14" filter="url(#dsFilter)" fill="#fff" d="M 157.5 114 Q 157.5 104 167.5 104 L 246.5 104 Q 256.5 104 256.5 114 L 256.5 126 Q 256.5 136 246.5 136 L 167.5 136 Q 157.5 136 157.5 126 Z" />
	<text x="170.1" y="124.8" id="text14" fill="#000" stroke="none" style="font-family:Consolas,Monaco,Anonymous Pro,Anonymous,Bitstream Sans Mono,monospace;font-size:15.2px" >Monitors </text>

</g>
</g>
<g id="lines" stroke="black" stroke-width="2" fill="none" >
</g>
<g id="text" fill="black" style="font-family:Consolas,Monaco,Anonymous Pro,Anonymous,Bitstream Sans Mono,monospace;font-size:15.2px" >
</g>
</svg>
