<?xml version="1.0" standalone="no"?>
<!DOCTYPE svg PUBLIC "-//W3C//DTD SVG 1.1//EN" 
  "http://www.w3.org/Graphics/SVG/1.1/DTD/svg11.dtd">
<!-- Created with ASCIIToSVG (http://9vx.org/~dho/a2s/) -->
<svg width="495px" height="160px" version="1.1"
  xmlns="http://www.w3.org/2000/svg" xmlns:xlink="http://www.w3.org/1999/xlink">
  <defs>
    <filter id="dsFilterNoBlur" width="150%" height="150%">
      <feOffset result="offOut" in="SourceGraphic" dx="3" dy="3"/>
      <feColorMatrix result="matrixOut" in="offOut" type="matrix" values="0.2 0 0 0 0 0 0.2 0 0 0 0 0 0.2 0 0 0 0 0 1 0"/>
      <feBlend in="SourceGraphic" in2="matrixOut" mode="normal"/>
    </filter>
    <filter id="dsFilter" width="150%" height="150%">
      <feOffset result="offOut" in="SourceGraphic" dx="3" dy="3"/>
      <feColorMatrix result="matrixOut" in="offOut" type="matrix" values="0.2 0 0 0 0 0 0.2 0 0 0 0 0 0.2 0 0 0 0 0 1 0"/>
      <feGaussianBlur result="blurOut" in="matrixOut" stdDeviation="3"/>
      <feBlend in="SourceGraphic" in2="blurOut" mode="normal"/>
    </filter>
    <marker id="iPointer"
      viewBox="0 0 10 10" refX="5" refY="5" 
      markerUnits="strokeWidth"
      markerWidth="8" markerHeight="7"
      orient="auto">
      <path d="M 10 0 L 10 10 L 0 5 z" />
    </marker>
    <marker id="Pointer"
      viewBox="0 0 10 10" refX="5" refY="5" 
      markerUnits="strokeWidth"
      markerWidth="8" markerHeight="7"
      orient="auto">
      <path d="M 0 0 L 10 5 L 0 10 z" />
    </marker>
  </defs><g id="boxes" stroke="black" stroke-width="2" fill="none" >
<g id="group0">
	<path id="path0" filter="url(#dsFilter)" fill="#fff" d="M 4.5 24 L 57.5 24 Q 67.5 24 67.5 34 L 67.5 46 Q 67.5 56 57.5 56 L 14.5 56 Q 4.5 56 4.5 46 Z" />
	<text x="17.1" y="44.8" id="text0" fill="#000" stroke="none" style="font-family:Consolas,Monaco,Anonymous Pro,Anonymous,Bitstream Sans Mono,monospace;font-size:15.2px" >Nova </text>

</g>
<g id="group2">
	<path id="path2" filter="url(#dsFilter)" fill="#fff" d="M 193.5 24 L 246.5 24 Q 256.5 24 256.5 34 L 256.5 46 Q 256.5 56 246.5 56 L 203.5 56 Q 193.5 56 193.5 46 Z" />
	<text x="215.1" y="44.8" id="text2" fill="#000" stroke="none" style="font-family:Consolas,Monaco,Anonymous Pro,Anonymous,Bitstream Sans Mono,monospace;font-size:15.2px" >VM </text>

</g>
<g id="group4">
	<path id="path4" filter="url(#dsFilter)" fill="#fff" d="M 382.5 24 L 444.5 24 Q 454.5 24 454.5 34 L 454.5 46 Q 454.5 56 444.5 56 L 392.5 56 Q 382.5 56 382.5 46 Z" />
	<text x="395.1" y="44.8" id="text4" fill="#000" stroke="none" style="font-family:Consolas,Monaco,Anonymous Pro,Anonymous,Bitstream Sans Mono,monospace;font-size:15.2px" >Swift </text>

</g>
<g id="group15">
	<path id="path15" filter="url(#dsFilter)" fill="#fff" d="M 4.5 104 L 75.5 104 Q 85.5 104 85.5 114 L 85.5 126 Q 85.5 136 75.5 136 L 14.5 136 Q 4.5 136 4.5 126 Z" />
	<text x="17.1" y="124.8" id="text15" fill="#000" stroke="none" style="font-family:Consolas,Monaco,Anonymous Pro,Anonymous,Bitstream Sans Mono,monospace;font-size:15.2px" >Cinder </text>

</g>
<g id="group17">
	<path id="path17" filter="url(#dsFilter)" fill="#fff" d="M 382.5 104 L 453.5 104 Q 463.5 104 463.5 114 L 463.5 126 Q 463.5 136 453.5 136 L 392.5 136 Q 382.5 136 382.5 126 Z" />
	<text x="395.1" y="124.8" id="text17" fill="#000" stroke="none" style="font-family:Consolas,Monaco,Anonymous Pro,Anonymous,Bitstream Sans Mono,monospace;font-size:15.2px" >Glance </text>

</g>
</g>
<g id="lines" stroke="black" stroke-width="2" fill="none" >
<g id="group100">
	<path id="path100" marker-end="url(#Pointer)" d="M 67.5 40 L 184.5 40 " />
</g>
<g id="group126">
	<path id="path126" marker-end="url(#Pointer)" d="M 85.5 120 L 201.5 120 Q 211.5 120 211.5 110 L 211.5 72 " />
</g>
<g id="group294">
	<path id="path294" marker-start="url(#iPointer)" d="M 238.5 72 L 238.5 110 Q 238.5 120 248.5 120 L 382.5 120 L 382.5 104 " />
</g>
<g id="group312">
	<path id="path312" marker-end="url(#Pointer)" d="M 256.5 40 L 373.5 40 " />
</g>
<g id="group475">
	<path id="path475" marker-start="url(#iPointer)" d="M 400.5 72 L 400.5 104 " />
</g>
</g>
<g id="text" fill="black" style="font-family:Consolas,Monaco,Anonymous Pro,Anonymous,Bitstream Sans Mono,monospace;font-size:15.2px" >
<text x="287.1" y="12.8" id="text0" fill="#000" >stores</text>
<text x="80.1" y="28.8" id="text1" fill="#000" >provisions </text>
<text x="269.1" y="28.8" id="text2" fill="#000" >objects in </text>
<text x="413.1" y="76.8" id="text6" fill="#000" >stores</text>
<text x="107.1" y="92.8" id="text7" fill="#000" >provides </text>
<text x="278.1" y="92.8" id="text8" fill="#000" >provides </text>
<text x="413.1" y="92.8" id="text9" fill="#000" >images in</text>
<text x="98.1" y="108.8" id="text10" fill="#000" >volumes for </text>
<text x="269.1" y="108.8" id="text11" fill="#000" >images for </text>
</g>
</svg>
